#!OML:ASF H:\Terrain\Patient Classification 1\Takeo\Monday\TakeoMonday.ASF
:FULLY-SPECIFIED
:DEGREES
1219
root 17.8904 17.5363 2.01761 -3.11713 -12.2201 1.64983
lowerback 1.66385 8.16495 6.38843
upperback 0.659036 10.964 2.15346
thorax 0.520548 5.49156 -1.33323
lowerneck -11.344 -10.5921 -7.14799
upperneck 9.17122 -14.4885 10.6915
head 5.94271 -6.62894 3.14084
rclavicle -1.55052e-014 3.18055e-015
rhumerus 93.1202 41.3822 -45.9847
rradius 60.8295
rwrist -40.0546
rhand -43.7523 36.495
rfingers 7.12502
rthumb -16.5828 7.18352
lclavicle -1.55052e-014 3.18055e-015
lhumerus 33.8102 14.2152 48.6251
lradius 98.2112
lwrist 30.2083
lhand -18.5016 28.9878
lfingers 7.12502
lthumb 7.78626 58.8244
rfemur 15.813 -10.3079 9.76511
rtibia 35.2228
rfoot 2.82387 -42.594
rtoes 14.4625
lfemur -8.80539 -17.5149 -27.234
ltibia 29.9407
lfoot -11.5563 -7.96395
ltoes 9.01063
1220
root 17.8734 17.5431 2.03217 -3.37046 -12.1502 1.58847
lowerback 1.82222 8.09946 6.29977
upperback 0.744181 10.8851 2.15109
thorax 0.499669 5.45341 -1.30913
lowerneck -11.8044 -10.7367 -7.0248
upperneck 9.63973 -14.6549 10.1703
head 6.12948 -6.71122 2.91177
rclavicle 1.19221e-013 -6.36111e-015
rhumerus 93.6612 41.2267 -45.2141
rradius 61.1349
rwrist -40.1757
rhand -43.4537 37.3216
rfingers 7.12502
rthumb -16.2952 7.98627
lclavicle 1.19221e-013 -6.36111e-015
lhumerus 33.4903 14.618 49.1181
lradius 98.9239
lwrist 30.838
lhand -18.7627 28.735
lfingers 7.12502
lthumb 7.53424 58.5808
rfemur 16.3422 -9.99811 10.0472
rtibia 34.7687
rfoot 2.54204 -42.852
rtoes 14.4554
lfemur -8.42384 -17.4403 -27.2128
ltibia 29.9868
lfoot -11.5412 -8.062
ltoes 8.24758
1221
root 17.8627 17.5507 2.04248 -3.35847 -12.0943 1.66576
lowerback 1.76054 8.0708 6.13026
upperback 0.711494 10.842 2.06571
thorax 0.482488 5.43116 -1.30196
lowerneck -12.0525 -10.8132 -7.18249
upperneck 9.918 -14.7361 10.0893
head 6.27076 -6.74548 2.88231
rclavicle -8.76143e-014 -4.37326e-014
rhumerus 94.0903 41.107 -44.4873
rradius 61.417
rwrist -40.4541
rhand -43.4532 37.9624
rfingers 7.12502
rthumb -16.2948 8.62709
lclavicle -8.76143e-014 -4.37326e-014
lhumerus 33.1389 14.6195 49.4258
lradius 99.3035
lwrist 30.145
lhand -19.9043 28.082
lfingers 7.12502
lthumb 6.4322 57.9643
rfemur 16.5198 -9.88291 10.0926
rtibia 34.4051
rfoot 1.88762 -43.088
rtoes 15.0493
lfemur -8.46151 -17.2848 -27.2667
ltibia 30.0624
lfoot -11.5613 -8.31593
ltoes 8.07754
1222
root 17.8579 17.5495 2.04749 -3.1111 -12.1736 1.55253
lowerback 1.59544 8.07217 6.19146
upperback 0.569279 10.8384 1.99184
thorax 0.452031 5.42641 -1.39432
lowerneck -11.9845 -10.7652 -7.5083
upperneck 9.92613 -14.6927 10.5687
head 6.32257 -6.70464 3.08601
rclavicle 7.85199e-015 -3.18055e-015
rhumerus 94.4205 41.1299 -43.8585
rradius 61.7508
rwrist -40.3553
rhand -43.3749 36.6162
rfingers 7.12502
rthumb -16.2193 7.27466
lclavicle 7.85199e-015 -3.18055e-015
lhumerus 32.6727 14.5773 49.6719
lradius 99.7015
lwrist 29.43
lhand -20.8916 27.8328
lfingers 7.12502
lthumb 5.47903 57.742
rfemur 16.3835 -9.74154 10.3573
rtibia 34.1872
rfoot 1.29652 -43.4196
rtoes 16.5855
lfemur -8.73268 -17.2653 -27.033
ltibia 30.1092
lfoot -11.5741 -8.5675
ltoes 10.72
1223
root 17.8481 17.5449 2.05255 -2.96981 -12.3387 1.29157
lowerback 1.60069 8.09054 6.37876
upperback 0.421827 10.8729 1.95594
thorax 0.34022 5.4383 -1.53982
lowerneck -11.81 -10.7288 -7.77818
upperneck 9.84181 -14.6724 11.0494
head 6.32515 -6.67971 3.28657
rclavicle -1.38553e-013 1.51076e-014
rhumerus 94.5424 41.2084 -43.4748
rradius 62.1067
rwrist -40.3476
rhand -43.1765 35.664
rfingers 7.12502
rthumb -16.0283 6.30701
lclavicle -1.38553e-013 1.51076e-014
lhumerus 32.1243 14.6256 49.8443
lradius 100.267
lwrist 29.3588
lhand -21.1961 28.2154
lfingers 7.12502
lthumb 5.18503 58.132
rfemur 16.3116 -9.43706 10.8429
rtibia 34.0838
rfoot 0.941986 -43.7291
rtoes 17.9624
lfemur -8.72851 -17.3103 -26.6523
ltibia 30.0678
lfoot -11.5877 -8.64751
ltoes 12.6086
1224
root 17.8382 17.5446 2.05838 -2.91646 -12.4119 1.27524
lowerback 1.52764 8.07517 6.32174
upperback 0.388672 10.8476 1.87415
thorax 0.34997 5.42576 -1.5842
lowerneck -11.5603 -10.6222 -7.88311
upperneck 9.40808 -14.5249 11.3713
head 6.16681 -6.61224 3.43918
rclavicle -5.55106e-014 -3.26007e-014
rhumerus 94.7196 41.1675 -43.052
rradius 62.4899
rwrist -40.7167
rhand -43.1324 35.7804
rfingers 7.12502
rthumb -15.9858 6.41997
lclavicle -5.55106e-014 -3.26007e-014
lhumerus 31.7693 14.8391 50.0834
lradius 100.776
lwrist 29.3367
lhand -21.245 28.3619
lfingers 7.12502
lthumb 5.13777 58.2796
rfemur 16.3004 -9.18017 11.0309
rtibia 34.017
rfoot 0.571631 -43.8145
rtoes 18.0277
lfemur -8.66274 -17.3643 -26.5879
ltibia 29.9695
lfoot -11.6036 -8.59484
ltoes 12.3267
1225
root 17.8325 17.5452 2.0665 -2.92495 -12.4532 1.77238
lowerback 1.32496 8.05007 5.76267
upperback 0.422716 10.7918 1.67193
thorax 0.430555 5.40133 -1.46577
lowerneck -11.3297 -10.4804 -7.61835
upperneck 8.89138 -14.3181 11.2834
head 5.91949 -6.53309 3.41771
rclavicle -1.4064e-014 6.36111e-015
rhumerus 95.0096 41.0724 -42.4524
rradius 62.8751
rwrist -40.9821
rhand -43.4015 35.5297
rfingers 7.12502
rthumb -16.245 6.19032
lclavicle -1.4064e-014 6.36111e-015
lhumerus 31.5567 15.1816 50.5149
lradius 101.247
lwrist 29.7118
lhand -21.8836 27.797
lfingers 7.12502
lthumb 4.52113 57.7287
rfemur 16.2714 -9.12414 10.4903
rtibia 33.913
rfoot 1.67463 -43.5332
rtoes 16.0849
lfemur -8.71854 -17.37 -27.0995
ltibia 29.98
lfoot -11.6313 -8.57417
ltoes 12.7929
1226
root 17.8217 17.5464 2.0804 -3.0541 -12.5611 1.97463
lowerback 1.29421 8.04982 5.49139
upperback 0.444324 10.7865 1.54779
thorax 0.444061 5.39984 -1.44354
lowerneck -11.0161 -10.3903 -7.33595
upperneck 8.50494 -14.2021 11.1841
head 5.70706 -6.49726 3.38066
rclavicle -3.10601e-014 1.98785e-014
rhumerus 94.9901 41.0768 -42.1894
rradius 63.2181
rwrist -41.1842
rhand -43.0954 35.3505
rfingers 7.12502
rthumb -15.9503 5.98729
lclavicle -3.10601e-014 1.98785e-014
lhumerus 31.1506 15.2794 50.9053
lradius 101.737
lwrist 29.9195
lhand -22.7971 26.8308
lfingers 7.12502
lthumb 3.63905 56.7794
rfemur 16.4579 -9.05825 10.231
rtibia 33.7333
rfoot 3.13845 -43.3656
rtoes 14.5098
lfemur -8.64901 -17.1912 -27.3547
ltibia 30.0771
lfoot -11.7755 -8.52994
ltoes 12.3162
1227
root 17.8071 17.5393 2.0891 -2.99792 -12.6648 1.35817
lowerback 1.25978 8.05719 6.00536
upperback 0.428634 10.7982 1.65
thorax 0.521731 5.40733 -1.60023
lowerneck -10.939 -10.3349 -7.23397
upperneck 8.44132 -14.1351 11.1504
head 5.65823 -6.46868 3.36783
rclavicle -8.69683e-014 -3.4191e-014
rhumerus 94.8547 41.1047 -41.9857
rradius 63.5565
rwrist -41.4209
rhand -42.4908 35.0941
rfingers 7.12502
rthumb -15.368 5.68523
lclavicle -8.69683e-014 -3.4191e-014
lhumerus 30.6656 15.1144 51.2373
lradius 102.08
lwrist 29.6013
lhand -22.7115 26.9274
lfingers 7.12502
lthumb 3.72166 56.8746
rfemur 16.6684 -8.95183 10.9611
rtibia 33.5128
rfoot 3.67278 -43.3246
rtoes 14.2834
lfemur -8.67525 -17.1364 -26.7003
ltibia 30.2028
lfoot -11.8134 -8.40853
ltoes 11.6659
1228
root 17.7954 17.5394 2.09523 -2.79688 -12.6814 0.932498
lowerback 1.08658 8.07715 6.35851
upperback 0.390808 10.8149 1.68008
thorax 0.638443 5.41811 -1.72621
lowerneck -11.3299 -10.366 -7.20915
upperneck 8.7766 -14.1743 10.9905
head 5.8172 -6.47324 3.28631
rclavicle 1.06946e-013 1.59028e-014
rhumerus 94.8901 40.9556 -41.4911
rradius 63.819
rwrist -41.5351
rhand -42.7796 34.6518
rfingers 7.12502
rthumb -15.6461 5.26453
lclavicle 1.06946e-013 1.59028e-014
lhumerus 30.4646 14.8875 51.7652
lradius 102.259
lwrist 29.5306
lhand -22.0688 27.9936
lfingers 7.12502
lthumb 4.34236 57.9291
rfemur 16.7097 -8.89099 11.4886
rtibia 33.3122
rfoot 4.28136 -43.0009
rtoes 13.9953
lfemur -8.90616 -17.1167 -26.1879
ltibia 30.3926
lfoot -11.9845 -8.322
ltoes 11.0291
1229
root 17.7891 17.5567 2.10704 -2.73434 -12.7312 1.08802
lowerback 0.908854 8.08036 6.2014
upperback 0.391582 10.8047 1.53275
thorax 0.736749 5.41609 -1.76444
lowerneck -11.549 -10.4585 -7.21158
upperneck 8.89024 -14.2831 10.8643
head 5.88917 -6.52315 3.2226
rclavicle 2.18812e-013 7.15625e-015
rhumerus 95.0229 40.8151 -41.0423
rradius 63.9749
rwrist -41.6864
rhand -43.1321 34.5202
rfingers 7.12502
rthumb -15.9855 5.15982
lclavicle 2.18812e-013 7.15625e-015
lhumerus 30.2189 14.7253 52.2443
lradius 102.508
lwrist 29.5691
lhand -21.6342 28.4894
lfingers 7.12502
lthumb 4.76195 58.4159
rfemur 16.7015 -8.69122 11.3612
rtibia 33.2388
rfoot 5.08055 -42.598
rtoes 13.8064
lfemur -8.99114 -16.8883 -26.3684
ltibia 30.5456
lfoot -12.4605 -8.15224
ltoes 8.6566
1230
root 17.7841 17.5655 2.11295 -2.61349 -12.8877 1.30201
lowerback 0.691248 8.05292 5.91906
upperback 0.348518 10.7533 1.37299
thorax 0.788255 5.39114 -1.75057
lowerneck -11.4449 -10.4708 -7.23711
upperneck 8.72814 -14.2916 10.912
head 5.82746 -6.53375 3.24775
rclavicle 3.95085e-014 -3.18055e-015
rhumerus 95.0977 40.9163 -40.7516
rradius 64.1684
rwrist -41.7945
rhand -42.9093 34.2379
rfingers 7.12502
rthumb -15.771 4.86043
lclavicle 3.95085e-014 -3.18055e-015
lhumerus 29.6757 14.6396 52.4279
lradius 102.824
lwrist 29.4135
lhand -21.6103 28.3379
lfingers 7.12502
lthumb 4.78504 58.2638
rfemur 16.4984 -8.49514 11.1467
rtibia 33.3158
rfoot 5.33952 -42.371
rtoes 14.3817
lfemur -9.10473 -16.7174 -26.5715
ltibia 30.5344
lfoot -12.6052 -7.95669
ltoes 7.28793
1231
root 17.7792 17.5554 2.11002 -2.62024 -13.0427 1.56655
lowerback 0.628798 8.0577 5.5853
upperback 0.367665 10.7547 1.24202
thorax 0.807238 5.3926 -1.69823
lowerneck -11.4446 -10.3991 -7.29862
upperneck 8.61135 -14.1892 11.0383
head 5.79621 -6.48149 3.30976
rclavicle -1.00486e-013 3.97569e-015
rhumerus 94.9868 41 -40.4557
rradius 64.4147
rwrist -41.7365
rhand -42.495 33.7272
rfingers 7.12502
rthumb -15.372 4.31864
lclavicle -1.00486e-013 3.97569e-015
lhumerus 29.2508 14.6144 52.7085
lradius 103.157
lwrist 29.524
lhand -21.0324 29.3824
lfingers 7.12502
lthumb 5.34311 59.295
rfemur 16.3939 -8.4658 10.7423
rtibia 33.4358
rfoot 5.97408 -41.8915
rtoes 14.2229
lfemur -9.12051 -16.8384 -26.7925
ltibia 30.4565
lfoot -12.3159 -7.88061
ltoes 9.47788
1232
root 17.7728 17.5484 2.10843 -2.86038 -13.2398 1.59378
lowerback 0.838533 8.12023 5.56123
upperback 0.505744 10.8475 1.22483
thorax 0.839339 5.44238 -1.71938
lowerneck -11.8647 -10.4405 -7.19353
upperneck 8.84751 -14.2186 10.7124
head 5.90891 -6.49187 3.16684
rclavicle 7.46933e-014 -7.95139e-016
rhumerus 94.838 40.8892 -40.035
rradius 64.6391
rwrist -41.8367
rhand -42.3926 33.2123
rfingers 7.12502
rthumb -15.2734 3.79619
lclavicle 7.46933e-014 -7.95139e-016
lhumerus 29.0491 14.5387 53.1005
lradius 103.482
lwrist 29.9376
lhand -20.2293 30.4761
lfingers 7.12502
lthumb 6.11847 60.3678
rfemur 16.5924 -8.25037 10.6059
rtibia 33.5119
rfoot 7.52921 -40.9732
rtoes 11.7594
lfemur -8.8228 -16.9165 -26.8495
ltibia 30.4679
lfoot -12.2642 -7.77157
ltoes 10.9969
1233
root 17.7636 17.5592 2.10907 -2.86226 -13.5159 1.22668
lowerback 0.914016 8.14445 5.83752
upperback 0.543148 10.8841 1.30281
thorax 0.874581 5.46264 -1.79004
lowerneck -12.5646 -10.4849 -6.74754
upperneck 9.399 -14.2689 9.98448
head 6.11246 -6.51089 2.82867
rclavicle -6.16232e-014 3.18055e-015
rhumerus 94.8778 40.8425 -39.5495
rradius 64.8677
rwrist -42.0642
rhand -42.6071 32.7706
rfingers 7.12502
rthumb -15.48 3.37035
lclavicle -6.16232e-014 3.18055e-015
lhumerus 28.5734 14.3881 53.2513
lradius 103.833
lwrist 30.1878
lhand -20.2825 30.4618
lfingers 7.12502
lthumb 6.06704 60.3549
rfemur 16.6196 -7.83218 11.0744
rtibia 33.5131
rfoot 8.36165 -40.4272
rtoes 9.88768
lfemur -8.74313 -16.7641 -26.4722
ltibia 30.5421
lfoot -12.5589 -7.51269
ltoes 8.98732
